<svg width="256" height="256" viewBox="0 0 256 256" fill="none" xmlns="http://www.w3.org/2000/svg" role="img" aria-label="omo-router logo">
  <title>omo-router</title>
  <desc>Three stacked rounded rectangles representing named model stacks; the top one is highlighted in cyan as the active stack. A small cyan dot on the left indicates the selector position. The plate is a soft slate background with rounded corners.</desc>

  <!-- background plate -->
  <rect width="256" height="256" rx="48" fill="#0F172A"/>

  <!-- subtle inner highlight -->
  <rect x="2" y="2" width="252" height="252" rx="46" fill="none" stroke="url(#sheen)" stroke-width="1" stroke-opacity="0.35"/>

  <!-- 3 stacked cards (the 3 stacks) -->
  <!-- bottom card: dim -->
  <rect x="60" y="170" width="148" height="34" rx="9" fill="#334155"/>
  <rect x="74" y="183" width="44" height="8" rx="4" fill="#0F172A" fill-opacity="0.55"/>

  <!-- middle card: medium -->
  <rect x="60" y="120" width="148" height="34" rx="9" fill="#475569"/>
  <rect x="74" y="133" width="60" height="8" rx="4" fill="#0F172A" fill-opacity="0.55"/>

  <!-- top card: active (cyan) -->
  <rect x="60" y="70" width="148" height="34" rx="9" fill="url(#activeFill)"/>
  <rect x="74" y="83" width="36" height="8" rx="4" fill="#0F172A" fill-opacity="0.7"/>
  <!-- subtle glow on active -->
  <rect x="60" y="70" width="148" height="34" rx="9" fill="none" stroke="#22D3EE" stroke-width="1.5" stroke-opacity="0.5"/>

  <!-- selector lane on the left -->
  <line x1="40" y1="64" x2="40" y2="210" stroke="#1E293B" stroke-width="4" stroke-linecap="round"/>

  <!-- selector dot pointing at active row -->
  <circle cx="40" cy="87" r="8" fill="#06B6D4"/>
  <circle cx="40" cy="87" r="8" fill="none" stroke="#22D3EE" stroke-width="2" stroke-opacity="0.65"/>

  <!-- gradient defs -->
  <defs>
    <linearGradient id="activeFill" x1="60" y1="70" x2="208" y2="104" gradientUnits="userSpaceOnUse">
      <stop offset="0" stop-color="#0891B2"/>
      <stop offset="1" stop-color="#06B6D4"/>
    </linearGradient>
    <linearGradient id="sheen" x1="0" y1="0" x2="256" y2="256" gradientUnits="userSpaceOnUse">
      <stop offset="0" stop-color="#94A3B8"/>
      <stop offset="0.5" stop-color="#94A3B8" stop-opacity="0"/>
      <stop offset="1" stop-color="#94A3B8"/>
    </linearGradient>
  </defs>
</svg>
